:SAMPLES-PER-SECOND 30
:FULLY-SPECIFIED
:DEGREES
763
root  -34.45 39.563 -1.22257 -8.63049 -77.0537 2.30063
RightUpLeg  -6.37188 -11.2902 -2.65032
RightLeg  19.9398 -0.291779 1.27677
RightFoot  -8.39476 -0.00342327 -2.07447
RightToes  1.45519e-009 0 -3.6325e-017
Spine  4.99465 0.873478 15.5861
Spine1  8.68307 3.79262 -6.1874
HEad  26.7024 36.9191 -0.109864
LeftShoulder1  -1.06537 6.18808 -33.4998
LeftArm  18.9411 -9.58085 -24.1829
LeftForeArm  91.5257 -79.3968 -51.5238
LeftHand  -0.184362 7.72222 -6.6027
RightShoulder  -0.938164 -6.09308 29.6603
RightArm  22.7737 -2.59028 43.4945
RightForeArm  9.09782 23.8591 4.61706
RightHand  -0.0351299 4.33078 -0.711347
LeftUpLeg  -9.24624 2.8449 7.71013
LeftLeg  35.5437 -5.51713 -3.87847
LeftFoot  -6.63936 0.352281 -7.60537
LeftToes  -2.53752e-010 -2.07034e-011 -2.70101e-011
764
root  -34.6162 39.6129 -1.19187 -9.80774 -77.477 3.46526
RightUpLeg  -5.98711 -11.0607 -2.79307
RightLeg  19.7048 -0.00113968 1.17737
RightFoot  -8.44618 -0.00196701 -2.18171
RightToes  1.45519e-009 0 -3.6325e-017
Spine  4.65837 0.963167 14.9267
Spine1  8.94329 3.69832 -5.905
HEad  26.0132 36.0731 -0.828582
LeftShoulder1  -0.992709 6.02778 -33.1532
LeftArm  18.3314 -9.7112 -25.4257
LeftForeArm  81.2057 -78.1262 -45.2651
LeftHand  -0.200462 7.89351 -6.80411
RightShoulder  -0.957044 -6.13437 29.8131
RightArm  22.9994 -2.27231 43.9471
RightForeArm  9.03992 24.6353 4.80193
RightHand  -0.0719411 3.63862 -1.1801
LeftUpLeg  -8.79155 2.03793 8.08915
LeftLeg  31.2862 -6.08979 -3.65366
LeftFoot  -6.88347 0.334916 -7.54053
LeftToes  -2.53752e-010 -2.07034e-011 -2.70101e-011
765
root  -34.7621 39.6593 -1.12807 -10.1742 -77.9745 3.87769
RightUpLeg  -5.65293 -10.9135 -2.84898
RightLeg  19.3713 0.376898 1.24327
RightFoot  -8.38943 0.00435087 -2.37182
RightToes  1.45519e-009 0 -3.6325e-017
Spine  4.4619 1.04914 14.5804
Spine1  8.94545 3.61956 -5.72395
HEad  24.9896 34.6399 -1.63407
LeftShoulder1  -0.982672 6.00921 -33.0443
LeftArm  18.6328 -10.2264 -26.5088
LeftForeArm  68.5301 -75.7433 -36.9127
LeftHand  -0.192231 7.99107 -6.23433
RightShoulder  -0.9505 -6.12587 29.6804
RightArm  22.3701 -2.35149 44.5528
RightForeArm  9.75371 25.4463 4.94264
RightHand  -0.048949 4.22789 -0.860318
LeftUpLeg  -8.36449 0.587857 8.58141
LeftLeg  26.8935 -6.40142 -3.19699
LeftFoot  -6.61174 0.336014 -7.17299
LeftToes  -2.53752e-010 -2.07034e-011 -2.70101e-011
766
root  -34.9042 39.7015 -1.04385 -11.3261 -78.7691 4.97195
RightUpLeg  -5.26374 -10.5881 -2.96215
RightLeg  19.0612 0.996562 1.1917
RightFoot  -8.53551 -0.00673212 -2.08124
RightToes  1.45519e-009 0 -3.6325e-017
Spine  4.42512 1.22445 13.8204
Spine1  8.96804 3.57464 -5.24018
HEad  22.4039 31.8747 -3.97421
LeftShoulder1  -0.990948 6.01296 -33.3094
LeftArm  19.3356 -10.8756 -27.6462
LeftForeArm  53.9683 -71.458 -27.9595
LeftHand  -0.206547 8.51988 -5.51494
RightShoulder  -0.94228 -6.09433 29.8
RightArm  22.933 -1.96638 44.9099
RightForeArm  8.58848 25.5976 5.03898
RightHand  -0.0914987 4.55552 -1.35657
LeftUpLeg  -7.55239 -1.4216 8.92177
LeftLeg  22.2411 -6.90166 -2.77709
LeftFoot  -6.39023 0.332209 -6.79288
LeftToes  -2.53752e-010 -2.07034e-011 -2.70101e-011
767
root  -35.0225 39.7024 -0.905562 -10.5311 -79.4957 4.43181
RightUpLeg  -5.36973 -10.2341 -2.79537
RightLeg  19.0017 1.401 1.16442
RightFoot  -8.88101 -0.0235839 -1.6963
RightToes  1.45519e-009 0 -3.6325e-017
Spine  4.37424 1.23154 13.6025
Spine1  8.49798 3.40114 -5.03542
HEad  19.6286 27.18 -5.73006
LeftShoulder1  -0.936342 5.89255 -33.0367
LeftArm  20.8212 -11.3224 -29.4626
LeftForeArm  41.8443 -65.3399 -20.3775
LeftHand  -0.137026 8.26585 -3.59268
RightShoulder  -0.948968 -6.10733 29.8772
RightArm  23.0962 -1.91036 45.2817
RightForeArm  8.87994 26.0268 5.11936
RightHand  -0.0571543 4.10007 -0.972224
LeftUpLeg  -7.44523 -3.78802 9.51329
LeftLeg  18.4336 -7.80704 -2.5837
LeftFoot  -6.31121 0.330877 -6.66692
LeftToes  -2.53752e-010 -2.07034e-011 -2.70101e-011
768
root  -35.1431 39.7077 -0.739098 -8.8147 -80.0412 2.70267
RightUpLeg  -5.02247 -9.9145 -2.61222
RightLeg  18.7181 1.7428 1.18784
RightFoot  -9.25784 -0.0397726 -1.26445
RightToes  1.45519e-009 0 -3.6325e-017
Spine  4.52385 1.12337 13.0398
Spine1  8.02828 2.95355 -4.08915
HEad  16.1769 20.4354 -7.03745
LeftShoulder1  -0.873197 5.69279 -33.7082
LeftArm  22.8066 -11.8492 -30.9691
LeftForeArm  36.1482 -58.8293 -15.3519
LeftHand  -0.106112 8.6495 -1.99149
RightShoulder  -0.9478 -6.11378 29.7433
RightArm  23.6252 -1.77018 45.6198
RightForeArm  8.77575 25.8495 5.08494
RightHand  -0.0582109 3.92663 -0.989439
LeftUpLeg  -7.18493 -6.45309 10.1582
LeftLeg  15.2456 -8.66132 -2.34429
LeftFoot  -6.48399 0.317759 -6.57594
LeftToes  -2.53752e-010 -2.07034e-011 -2.70101e-011
769
root  -35.2687 39.715 -0.542236 -6.82117 -80.7942 0.830429
RightUpLeg  -4.89445 -9.40586 -2.34928
RightLeg  18.4852 2.05917 1.08896
RightFoot  -9.46258 -0.0498696 -0.864125
RightToes  1.45519e-009 0 -3.6325e-017
Spine  4.13184 0.914733 12.4664
Spine1  8.15497 2.48361 -3.5764
HEad  12.6102 13.3751 -8.09771
LeftShoulder1  -0.847351 5.63352 -33.6067
LeftArm  25.0245 -12.3767 -33.3207
LeftForeArm  34.1569 -51.121 -11.2502
LeftHand  -0.0701391 7.36694 -1.67363
RightShoulder  -0.93865 -6.08196 29.8237
RightArm  24.688 -1.24395 46.3063
RightForeArm  7.34752 24.801 4.91874
RightHand  -0.105055 4.093 -1.55967
LeftUpLeg  -7.07528 -7.94686 10.5178
LeftLeg  12.8647 -8.78761 -1.68208
LeftFoot  -6.40254 0.334948 -6.84291
LeftToes  -2.53752e-010 -2.07034e-011 -2.70101e-011
770
root  -35.3689 39.6991 -0.303865 -4.45007 -81.7108 -1.32243
RightUpLeg  -5.02871 -9.19031 -2.24666
RightLeg  18.4817 2.78668 1.26401
RightFoot  -9.78274 -0.0603449 -0.4301
RightToes  1.45519e-009 0 -3.6325e-017
Spine  3.90711 0.753728 11.6775
Spine1  8.07103 2.03772 -2.83506
HEad  9.14337 6.60827 -9.29688
LeftShoulder1  -0.75055 5.39035 -33.6164
LeftArm  28.3009 -13.3578 -35.9079
LeftForeArm  29.8161 -41.7889 -8.0358
LeftHand  -0.0654053 8.06239 -0.824149
RightShoulder  -1.02527 -6.27628 30.4298
RightArm  25.6407 -0.38615 46.6416
RightForeArm  6.13885 22.9678 4.6709
RightHand  -0.0885591 4.31019 -1.33962
LeftUpLeg  -7.36159 -7.04065 10.6325
LeftLeg  12.1406 -9.73047 -1.39952
LeftFoot  -5.40793 0.430596 -7.71713
LeftToes  -2.53752e-010 -2.07034e-011 -2.70101e-011
771
root  -35.4688 39.6574 -0.0229323 -0.708679 -83.1303 -5.08969
RightUpLeg  -5.15902 -8.13346 -1.88543
RightLeg  18.7999 3.23605 1.09193
RightFoot  -10.0569 -0.0679824 -0.0179961
RightToes  1.45519e-009 0 -3.6325e-017
Spine  4.39119 0.574835 11.1719
Spine1  7.45912 1.70358 -2.21465
HEad  6.04425 -1.49443 -9.24135
LeftShoulder1  -0.725396 5.30026 -34.1927
LeftArm  34.4539 -14.6126 -38.127
LeftForeArm  20.6876 -31.6105 -5.4794
LeftHand  -0.128314 8.95561 -2.46014
RightShoulder  -1.04915 -6.32386 30.6501
RightArm  25.0304 0.0406123 47.2254
RightForeArm  5.03198 20.5556 4.90012
RightHand  -0.0768546 4.39619 -1.17752
LeftUpLeg  -7.49075 -6.65878 10.8954
LeftLeg  13.1868 -9.1483 -1.74675
LeftFoot  -4.52095 0.447662 -7.03955
LeftToes  -2.53752e-010 -2.07034e-011 -2.70101e-011
772
root  -35.5774 39.6201 0.274319 4.91907 -84.8814 -10.6209
RightUpLeg  -5.40949 -7.09607 -1.58413
RightLeg  19.0096 3.98168 1.16171
RightFoot  -10.1208 -0.0709545 0.216241
RightToes  1.45519e-009 0 -3.6325e-017
Spine  4.9606 0.41831 10.763
Spine1  6.47336 1.5052 -2.06872
HEad  3.89126 -8.8832 -8.57794
LeftShoulder1  -0.566617 4.91765 -33.9203
LeftArm  34.5825 -14.8967 -40.4882
LeftForeArm  15.1665 -20.5277 -5.87044
LeftHand  -0.26508 10.9687 -3.98499
RightShoulder  -1.09769 -6.41134 31.2088
RightArm  22.2249 0.508849 47.5616
RightForeArm  4.55359 17.0662 5.92182
RightHand  -0.192854 5.11374 -2.44394
LeftUpLeg  -7.70272 -6.73561 11.2191
LeftLeg  14.8387 -7.19277 -1.83778
LeftFoot  -5.55476 0.36981 -6.66393
LeftToes  -2.53752e-010 -2.07034e-011 -2.70101e-011
773
root  -35.7051 39.6262 0.574411 24.4387 -87.077 -30.1894
RightUpLeg  -5.39993 -5.62149 -1.62258
RightLeg  18.9013 4.8425 1.1785
RightFoot  -9.97985 -0.0749736 0.622856
RightToes  1.45519e-009 0 -3.6325e-017
Spine  5.09061 0.301452 9.35644
Spine1  6.71153 1.20636 -1.40034
HEad  1.06231 -15.5039 -7.07853
LeftShoulder1  -0.513541 4.78088 -34.0561
LeftArm  11.0463 -15.4697 -40.9116
LeftForeArm  32.8408 -7.66343 -12.7003
LeftHand  -0.457345 13.0689 -5.64757
RightShoulder  -1.08402 -6.34986 31.5263
RightArm  18.2489 2.69923 47.6818
RightForeArm  4.67972 12.359 7.3252
RightHand  -0.228224 5.63352 -2.72318
LeftUpLeg  -7.05131 -5.0094 10.9973
LeftLeg  15.3941 -6.52189 -1.70952
LeftFoot  -5.49424 0.335173 -5.91615
LeftToes  -2.53752e-010 -2.07034e-011 -2.70101e-011
774
root  -35.8406 39.6336 0.945321 -132.849 -89.9542 126.932
RightUpLeg  -5.39404 -4.34311 -2.12191
RightLeg  18.8828 6.62357 1.61602
RightFoot  -9.85545 -0.0782318 0.880486
RightToes  1.45519e-009 0 -3.6325e-017
Spine  5.4146 0.37889 7.79022
Spine1  6.9345 1.0492 -0.446055
HEad  -1.63954 -21.7546 -5.88571
LeftShoulder1  -0.494977 4.72135 -34.4864
LeftArm  0.074808 -14.1073 -40.882
LeftForeArm  39.9956 -0.69597 -12.1507
LeftHand  -0.477286 13.6853 -5.39342
RightShoulder  -0.953212 -6.0485 30.8682
RightArm  13.2875 5.12195 47.4316
RightForeArm  4.42335 8.26858 7.3567
RightHand  -0.298637 6.48472 -3.25122
LeftUpLeg  -6.00171 -2.94104 10.491
LeftLeg  15.8899 -5.42123 -1.42747
LeftFoot  -6.08285 0.31284 -6.01654
LeftToes  -2.53752e-010 -2.07034e-011 -2.70101e-011
775
root  -35.9858 39.6537 1.33962 153.985 -86.1649 -159.874
RightUpLeg  -5.45575 -2.75609 -2.25112
RightLeg  18.4414 8.16759 1.90248
RightFoot  -9.46573 -0.085654 1.2975
RightToes  1.45519e-009 0 -3.6325e-017
Spine  5.77603 0.278878 6.8399
Spine1  6.68194 0.823986 -0.0937686
HEad  -4.28883 -26.2561 -4.71021
LeftShoulder1  -0.484367 4.6954 -34.4815
LeftArm  -1.09797 -10.7342 -40.7441
LeftForeArm  40.7733 -0.583798 -11.0063
LeftHand  -0.539695 13.3889 -6.48748
RightShoulder  -0.86096 -5.83428 30.34
RightArm  10.3632 8.59179 46.0716
RightForeArm  0.62322 4.91006 6.61977
RightHand  -0.40286 6.91467 -4.14954
LeftUpLeg  -5.22069 -0.489258 10.3432
LeftLeg  16.4755 -4.56434 -1.20133
LeftFoot  -6.72521 0.275818 -5.83825
LeftToes  -2.53752e-010 -2.07034e-011 -2.70101e-011
